<svg xmlns="http://www.w3.org/2000/svg" xmlns:xlink="http://www.w3.org/1999/xlink" width="500" zoomAndPan="magnify" viewBox="0 0 375 374.999991" height="500" preserveAspectRatio="xMidYMid meet" version="1.0"><defs><clipPath id="034450b77d"><path d="M 0 0 L 373.5 0 L 373.5 373.5 L 0 373.5 Z M 0 0 " clip-rule="nonzero"/></clipPath></defs><rect x="-37.5" width="450" fill="#ffffff" y="-37.499999" height="449.999989" fill-opacity="1"/><g clip-path="url(#034450b77d)"><path fill="#38c190" d="M 186.75 373.496094 C 289.601562 373.496094 373.496094 289.601562 373.496094 186.75 C 373.496094 83.898438 289.601562 0.00390625 186.75 0.00390625 C 83.898438 0.00390625 0.00390625 83.898438 0.00390625 186.75 C 0.00390625 289.601562 83.898438 373.496094 186.75 373.496094 Z M 186.75 373.496094 " fill-opacity="1" fill-rule="evenodd"/></g><path fill="#ffffff" d="M 120.570312 166.503906 L 128.871094 93.078125 L 103.710938 93.078125 C 92.042969 93.078125 87.546875 96.632812 86.480469 106.652344 L 86.460938 106.855469 L 74.800781 149.230469 C 72.898438 156.113281 73.820312 162.273438 77.445312 167.042969 C 81.773438 172.730469 89.9375 176.257812 98.757812 176.257812 C 107.757812 176.246094 115.859375 172.617188 120.570312 166.503906 Z M 120.570312 166.503906 " fill-opacity="1" fill-rule="evenodd"/><path fill="#ffffff" d="M 157.542969 177.300781 C 166.957031 177.300781 175.597656 172.613281 179.746094 165.300781 L 179.664062 93.074219 L 142.1875 93.074219 L 136.0625 164.433594 C 139.855469 172.507812 147.84375 177.300781 157.542969 177.300781 Z M 157.542969 177.300781 " fill-opacity="1" fill-rule="evenodd"/><path fill="#ffffff" d="M 267.597656 188.691406 C 257.144531 187.710938 248.199219 183.109375 242.4375 175.664062 C 239.160156 180.183594 234.644531 183.816406 228.96875 186.296875 C 223.871094 188.460938 218.554688 189.40625 213.023438 189.132812 C 202.125 188.691406 192.734375 183.816406 186.710938 175.933594 C 183.964844 179.566406 180.242188 182.664062 175.902344 185.058594 C 171.121094 187.535156 165.714844 188.867188 160.402344 189.132812 C 148.175781 189.664062 134.886719 184.4375 128.421875 175.578125 C 121.6875 184.257812 117.433594 187.625 105.828125 188.691406 C 102.027344 188.957031 98.25 188.777344 94.488281 188.160156 L 94.488281 267.179688 C 94.488281 277.710938 103.082031 286.402344 113.625 286.402344 L 124.257812 286.402344 L 124.257812 215.53125 C 124.253906 215.035156 124.304688 214.546875 124.398438 214.0625 C 124.496094 213.578125 124.636719 213.105469 124.828125 212.648438 C 125.015625 212.191406 125.246094 211.757812 125.523438 211.347656 C 125.796875 210.933594 126.109375 210.554688 126.460938 210.207031 C 126.808594 209.855469 127.1875 209.542969 127.601562 209.269531 C 128.011719 208.992188 128.445312 208.761719 128.902344 208.574219 C 129.359375 208.382812 129.832031 208.242188 130.316406 208.144531 C 130.800781 208.050781 131.292969 208 131.785156 208 L 166.175781 208 C 166.667969 208 167.160156 208.050781 167.644531 208.144531 C 168.128906 208.242188 168.601562 208.382812 169.058594 208.574219 C 169.515625 208.761719 169.949219 208.992188 170.359375 209.269531 C 170.769531 209.542969 171.152344 209.855469 171.5 210.203125 C 171.851562 210.554688 172.164062 210.933594 172.4375 211.347656 C 172.714844 211.757812 172.945312 212.191406 173.132812 212.648438 C 173.324219 213.105469 173.464844 213.578125 173.5625 214.0625 C 173.660156 214.546875 173.707031 215.035156 173.707031 215.53125 L 173.707031 286.402344 L 259.8125 286.402344 C 270.347656 286.402344 279.039062 277.722656 279.039062 267.179688 L 279.039062 188.160156 C 275.246094 188.777344 271.433594 188.953125 267.597656 188.691406 Z M 261.925781 254.335938 C 261.929688 254.796875 261.886719 255.253906 261.800781 255.703125 C 261.710938 256.15625 261.582031 256.59375 261.40625 257.019531 C 261.230469 257.445312 261.015625 257.851562 260.761719 258.234375 C 260.507812 258.617188 260.214844 258.972656 259.890625 259.296875 C 259.566406 259.621094 259.210938 259.914062 258.828125 260.167969 C 258.445312 260.421875 258.039062 260.636719 257.613281 260.8125 C 257.1875 260.988281 256.75 261.121094 256.296875 261.207031 C 255.847656 261.296875 255.390625 261.335938 254.929688 261.335938 L 200.625 261.335938 C 200.164062 261.335938 199.707031 261.296875 199.253906 261.207031 C 198.804688 261.121094 198.363281 260.988281 197.9375 260.8125 C 197.511719 260.636719 197.109375 260.421875 196.726562 260.167969 C 196.34375 259.914062 195.988281 259.621094 195.664062 259.296875 C 195.335938 258.972656 195.046875 258.617188 194.792969 258.234375 C 194.539062 257.851562 194.320312 257.445312 194.148438 257.019531 C 193.972656 256.59375 193.839844 256.15625 193.753906 255.703125 C 193.664062 255.253906 193.621094 254.796875 193.625 254.335938 L 193.625 221.464844 C 193.625 221.007812 193.671875 220.554688 193.761719 220.101562 C 193.851562 219.652344 193.984375 219.214844 194.164062 218.789062 C 194.339844 218.367188 194.554688 217.964844 194.808594 217.582031 C 195.066406 217.199219 195.355469 216.847656 195.679688 216.523438 C 196.003906 216.199219 196.359375 215.90625 196.738281 215.652344 C 197.121094 215.398438 197.523438 215.179688 197.949219 215.003906 C 198.371094 214.828125 198.808594 214.695312 199.257812 214.605469 C 199.710938 214.515625 200.164062 214.46875 200.625 214.46875 L 254.929688 214.46875 C 255.390625 214.46875 255.84375 214.515625 256.292969 214.605469 C 256.742188 214.695312 257.179688 214.828125 257.605469 215.003906 C 258.027344 215.179688 258.433594 215.398438 258.8125 215.652344 C 259.195312 215.90625 259.550781 216.199219 259.875 216.523438 C 260.199219 216.847656 260.488281 217.199219 260.742188 217.582031 C 261 217.964844 261.214844 218.367188 261.390625 218.789062 C 261.566406 219.214844 261.699219 219.652344 261.789062 220.101562 C 261.882812 220.554688 261.925781 221.007812 261.925781 221.464844 Z M 261.925781 254.335938 " fill-opacity="1" fill-rule="evenodd"/><path fill="#ffffff" d="M 298.722656 149.222656 L 286.964844 106.84375 L 286.945312 106.632812 C 285.96875 96.621094 281.457031 93.074219 269.71875 93.074219 L 244.476562 93.074219 L 252.859375 166.496094 C 257.570312 172.621094 265.675781 176.242188 274.683594 176.242188 C 283.5 176.242188 291.683594 172.710938 296.023438 167.023438 C 299.671875 162.253906 300.601562 156.097656 298.722656 149.222656 Z M 298.722656 149.222656 " fill-opacity="1" fill-rule="evenodd"/><path fill="#ffffff" d="M 216.09375 177.171875 C 225.699219 177.171875 233.609375 172.421875 237.371094 164.433594 L 231.246094 93.070312 L 193.171875 93.070312 L 193.679688 165.023438 C 197.867188 172.421875 206.589844 177.171875 216.09375 177.171875 Z M 216.09375 177.171875 " fill-opacity="1" fill-rule="evenodd"/></svg>